<?xml version="1.0" standalone="no"?>
<!DOCTYPE svg PUBLIC "-//W3C//DTD SVG 20010904//EN"
 "http://www.w3.org/TR/2001/REC-SVG-20010904/DTD/svg10.dtd">
<svg version="1.0" xmlns="http://www.w3.org/2000/svg"
 width="1002.000000pt" height="492.000000pt" viewBox="0 0 1002.000000 492.000000"
 preserveAspectRatio="xMidYMid meet">

<g transform="translate(0.000000,492.000000) scale(0.100000,-0.100000)"
fill="#000000" stroke="none">
<path d="M0 2460 l0 -2460 5010 0 5010 0 0 2460 0 2460 -5010 0 -5010 0 0
-2460z m5685 2381 c50 -22 96 -67 121 -118 18 -36 19 -72 22 -653 3 -682 4
-663 -62 -732 -74 -76 -38 -73 -726 -76 -682 -3 -663 -4 -732 62 -76 74 -73
40 -76 716 -2 333 0 619 3 636 12 67 84 145 160 172 20 7 232 11 640 11 570 1
613 -1 650 -18z m-5075 -2332 c28 -6 72 -25 98 -43 46 -32 112 -115 112 -142
0 -8 -35 -31 -78 -53 l-78 -39 -19 36 c-55 100 -202 112 -278 23 -39 -47 -49
-100 -45 -241 3 -111 6 -130 28 -169 32 -56 83 -84 154 -84 76 0 107 21 167
116 5 7 118 -50 158 -80 9 -6 -72 -113 -105 -138 -134 -103 -367 -89 -487 29
-127 126 -157 409 -62 602 75 153 244 224 435 183z m2695 -3 c66 -17 113 -42
153 -79 l32 -31 -61 -62 -62 -63 -36 28 c-47 37 -91 51 -162 51 -84 0 -116
-31 -111 -107 3 -34 39 -51 151 -73 216 -41 290 -109 291 -266 0 -155 -94
-251 -269 -273 -140 -18 -283 23 -360 103 l-32 33 60 64 59 64 29 -26 c38 -36
83 -58 145 -69 65 -13 111 -4 149 27 44 37 38 117 -10 142 -10 6 -62 17 -117
26 -180 28 -261 87 -285 206 -29 144 59 273 208 308 58 14 172 12 228 -3z
m4602 -15 c30 -14 71 -44 98 -72 43 -45 73 -95 64 -103 -2 -2 -38 -22 -81 -45
l-76 -42 -19 38 c-25 53 -74 83 -134 83 -61 0 -96 -13 -135 -52 -46 -43 -57
-94 -53 -249 4 -146 15 -181 70 -222 35 -25 106 -38 155 -27 37 9 92 56 119
104 9 16 16 14 83 -25 39 -23 72 -47 72 -54 0 -19 -54 -88 -100 -128 -57 -49
-124 -70 -221 -69 -176 1 -294 81 -352 240 -26 71 -35 246 -17 334 31 159 121
264 258 304 71 20 205 13 269 -15z m-6677 7 c0 -7 -7 -51 -15 -98 -8 -47 -15
-91 -15 -97 0 -10 26 -13 95 -13 90 0 95 1 100 23 6 26 35 187 35 193 0 2 27
4 61 4 53 0 60 -2 55 -17 -2 -10 -10 -52 -16 -93 -6 -41 -14 -83 -16 -92 -5
-16 3 -18 60 -18 l66 0 0 -55 0 -55 -74 0 -74 0 -11 -62 c-6 -35 -13 -82 -17
-105 l-7 -43 62 0 61 0 0 -60 0 -60 -75 0 c-62 0 -75 -3 -75 -16 0 -9 -7 -56
-16 -105 l-17 -89 -59 0 -59 0 7 38 c4 20 12 67 19 105 l13 67 -98 0 -98 0
-16 -87 c-9 -49 -16 -96 -16 -105 0 -15 -10 -18 -60 -18 -70 0 -68 -5 -45 113
8 43 15 83 15 88 0 5 -27 9 -60 9 l-60 0 0 60 0 59 72 3 72 3 13 75 c6 41 14
87 17 103 l6 27 -65 0 -65 0 0 55 0 55 75 0 c41 0 75 3 75 8 0 13 31 186 35
200 3 7 24 12 60 12 37 0 55 -4 55 -12z m1392 -413 c75 -231 137 -426 138
-433 0 -10 -23 -12 -97 -10 l-97 3 -30 98 -29 98 -146 -3 -145 -3 -30 -97 -29
-98 -94 0 c-68 0 -93 3 -93 12 0 7 63 203 141 436 l141 423 116 -3 116 -3 138
-420z m1558 399 c162 -75 203 -327 74 -458 -56 -57 -104 -70 -261 -74 l-143
-4 0 -154 0 -154 -95 0 -95 0 0 436 0 436 238 -4 c214 -3 241 -5 282 -24z
m881 -186 c67 -117 140 -249 160 -293 l38 -80 1 293 0 292 90 0 90 0 0 -435 0
-435 -104 0 -104 0 -125 218 c-69 119 -141 251 -160 292 l-35 75 -1 -292 -1
-293 -90 0 -90 0 0 435 0 435 104 0 104 0 123 -212z m1159 127 l0 -85 -200 0
-200 0 0 -90 0 -90 170 0 170 0 0 -85 0 -85 -170 0 -170 0 0 -90 0 -90 200 0
200 0 0 -85 0 -85 -295 0 -295 0 0 435 0 435 295 0 295 0 0 -85z m760 0 l0
-85 -115 0 -115 0 0 -350 0 -350 -100 0 -100 0 0 350 0 350 -115 0 -115 0 0
85 0 85 330 0 330 0 0 -85z m1546 -126 c99 -18 179 -83 214 -175 53 -143 25
-328 -64 -415 -67 -66 -165 -94 -270 -78 -105 17 -174 70 -219 168 -17 38 -21
66 -21 166 -1 102 2 127 20 166 43 93 118 153 213 169 66 11 62 11 127 -1z
m1259 -19 c109 -47 175 -166 175 -315 l0 -45 -211 0 -212 0 6 -36 c12 -73 64
-114 144 -114 41 0 111 30 138 60 17 19 18 18 61 -35 24 -29 44 -59 44 -64 0
-17 -101 -78 -151 -91 -113 -31 -239 -9 -324 55 -90 69 -131 257 -87 402 23
75 72 142 126 170 80 43 209 49 291 13z m-705 -62 l0 -72 25 50 c30 60 82 94
144 94 l41 0 0 -84 0 -83 -67 -5 c-85 -7 -119 -22 -133 -61 -5 -17 -10 -114
-10 -223 l0 -194 -90 0 -90 0 0 325 0 325 90 0 90 0 0 -72z m-4561 -395 c45
-42 47 -129 5 -168 -32 -30 -110 -35 -149 -9 -29 19 -46 71 -38 120 13 80 121
114 182 57z m799 -700 l-3 -88 -118 -12 c-147 -14 -158 -17 -196 -48 -32 -28
-46 -62 -56 -140 l-7 -50 30 47 c38 58 75 78 147 78 94 0 168 -50 211 -144 48
-106 41 -263 -17 -364 -50 -89 -133 -133 -249 -134 -97 -1 -147 18 -207 78
-43 42 -56 64 -75 125 -20 64 -23 94 -23 229 0 121 5 168 19 215 51 169 147
250 321 274 117 16 136 18 183 20 l43 1 -3 -87z m-3630 -200 c44 -21 97 -85
117 -142 25 -70 30 -222 11 -303 -33 -142 -109 -209 -236 -211 -76 0 -132 32
-168 98 -9 15 -11 -22 -12 -157 l0 -178 -95 0 -95 0 0 450 0 450 95 0 95 0 1
-52 c0 -29 3 -46 7 -38 43 96 170 134 280 83z m682 -11 c59 -29 93 -70 110
-131 5 -20 10 -109 10 -198 l0 -163 30 0 30 0 0 -70 0 -70 -67 0 c-82 0 -121
20 -148 75 l-17 38 -13 -29 c-27 -65 -126 -112 -207 -98 -68 11 -77 15 -109
41 -65 55 -86 150 -50 228 37 82 110 116 259 123 l102 5 0 33 c0 70 -35 104
-107 104 -37 0 -123 -42 -123 -60 0 -21 -27 -8 -73 35 -47 44 -48 45 -32 69
23 35 101 84 144 92 20 3 41 7 46 10 6 2 44 1 85 -2 54 -3 91 -12 130 -32z
m707 2 c74 -36 98 -73 98 -152 0 -59 -2 -66 -33 -93 -18 -16 -46 -32 -62 -36
-35 -7 -31 -18 8 -26 76 -15 123 -95 102 -175 -24 -95 -92 -145 -220 -161
-124 -16 -245 15 -325 83 l-30 26 55 55 c53 54 54 54 75 36 75 -69 223 -80
255 -20 17 30 11 67 -12 83 -16 12 -47 16 -110 16 l-88 0 0 60 0 60 73 0 c97
0 122 14 122 65 0 32 -5 42 -25 52 -52 27 -162 4 -199 -40 -20 -24 -27 -22
-82 30 l-49 46 22 25 c33 35 103 74 162 89 76 19 198 9 263 -23z m722 10 c20
-8 48 -27 63 -41 63 -60 96 -211 79 -354 -23 -176 -99 -260 -241 -261 -65 -1
-105 17 -148 67 l-32 35 -2 -167 -3 -168 -92 -3 -93 -3 0 451 0 450 95 0 95 0
0 -47 0 -48 20 32 c45 75 157 100 259 57z m691 -12 c59 -29 93 -70 110 -131 5
-20 10 -109 10 -198 l0 -163 30 0 30 0 0 -70 0 -70 -67 0 c-82 0 -121 20 -148
75 l-17 38 -13 -29 c-30 -72 -128 -112 -225 -94 -59 11 -77 20 -107 52 -53 56
-66 143 -34 213 37 82 110 116 259 123 l102 5 0 33 c0 70 -35 104 -107 104
-37 0 -123 -42 -123 -60 0 -21 -27 -8 -73 35 -47 44 -48 45 -32 69 23 35 101
84 144 92 20 3 41 7 46 10 6 2 44 1 85 -2 54 -3 91 -12 130 -32z m1326 27 c99
-18 179 -83 214 -175 53 -143 25 -328 -64 -415 -67 -66 -165 -94 -270 -78
-105 17 -174 70 -219 168 -17 38 -21 66 -21 166 -1 102 2 127 20 166 43 93
118 153 213 169 66 11 62 11 127 -1z m864 -79 l0 -70 -95 0 -95 0 0 -255 0
-255 -90 0 -90 0 0 255 0 255 -95 0 -95 0 0 70 0 70 280 0 280 0 0 -70z m290
-44 c0 -140 9 -171 57 -187 42 -14 99 -6 124 17 17 15 19 33 19 151 l0 133 95
0 95 0 0 -325 0 -325 -95 0 -95 0 0 137 0 137 -32 -31 c-105 -98 -301 -56
-337 72 -6 22 -11 106 -11 188 l0 147 90 0 90 0 0 -114z m737 -63 c-4 -98 -9
-191 -12 -208 -5 -22 3 -14 27 31 19 33 76 126 128 207 l95 147 83 0 82 0 0
-325 0 -325 -91 0 -92 0 6 183 c3 100 9 193 12 207 4 14 -15 -13 -42 -60 -27
-47 -86 -140 -131 -208 l-82 -122 -85 0 -85 0 0 325 0 325 96 0 97 0 -6 -177z
m763 52 l0 -125 45 0 c44 0 46 1 73 51 96 178 119 199 218 199 l64 0 0 -70 0
-70 -32 0 c-30 0 -36 -6 -71 -70 -21 -39 -50 -78 -63 -87 l-26 -16 31 -24 c16
-13 48 -57 71 -98 39 -71 43 -75 76 -75 l34 0 0 -70 0 -70 -69 0 c-105 0 -127
21 -243 229 -15 28 -22 31 -63 31 l-45 0 0 -130 0 -130 -95 0 -95 0 0 325 0
325 95 0 95 0 0 -125z"/>
<path d="M4805 4484 c-110 -63 -212 -128 -227 -145 l-28 -29 0 -245 c0 -159 4
-253 11 -269 8 -17 77 -61 225 -146 118 -68 225 -125 239 -127 18 -4 76 25
222 108 109 63 213 128 231 145 l32 32 0 246 c0 160 -4 254 -11 270 -13 28
-438 276 -473 276 -12 0 -111 -52 -221 -116z m340 -85 c57 -17 78 -31 133 -85
46 -45 63 -67 56 -74 -6 -6 -42 -29 -79 -51 l-69 -40 -23 25 c-35 38 -81 58
-132 59 -93 1 -162 -65 -169 -162 -5 -68 12 -108 60 -145 76 -57 168 -52 232
11 l35 35 75 -43 c42 -24 76 -47 76 -51 0 -24 -99 -112 -159 -140 -58 -29 -76
-32 -151 -32 -71 -1 -94 4 -141 26 -78 36 -133 89 -169 162 -74 149 -51 308
60 416 102 99 231 131 365 89z m165 -264 c0 -20 5 -25 25 -25 20 0 25 5 25 25
0 16 6 25 15 25 9 0 15 -9 15 -25 0 -20 5 -25 25 -25 14 0 25 -4 25 -10 0 -5
-11 -10 -25 -10 -20 0 -25 -5 -25 -24 0 -18 6 -26 22 -28 32 -5 35 -28 4 -28
-21 0 -26 -5 -26 -25 0 -16 -6 -25 -15 -25 -9 0 -15 9 -15 25 0 20 -5 25 -25
25 -20 0 -25 -5 -25 -25 0 -16 -6 -25 -15 -25 -9 0 -15 9 -15 25 0 20 -5 25
-26 25 -31 0 -28 23 4 28 16 2 22 10 22 28 0 19 -5 24 -25 24 -14 0 -25 5 -25
10 0 6 11 10 25 10 20 0 25 5 25 25 0 16 6 25 15 25 9 0 15 -9 15 -25z"/>
<path d="M5310 4065 c0 -20 5 -25 25 -25 20 0 25 5 25 25 0 20 -5 25 -25 25
-20 0 -25 -5 -25 -25z"/>
<path d="M1176 2163 c-3 -10 -10 -47 -16 -83 -6 -36 -13 -75 -15 -87 -5 -23
-4 -23 93 -23 l99 0 16 98 c10 53 17 100 17 105 0 4 -42 7 -94 7 -82 0 -95 -2
-100 -17z"/>
<path d="M2358 2324 c-11 -18 -90 -306 -85 -310 2 -3 45 -3 94 -2 l89 3 -46
159 c-26 88 -49 155 -52 150z"/>
<path d="M3850 2230 l0 -110 118 0 c111 0 120 1 140 23 18 19 22 35 22 89 0
60 -3 69 -26 87 -23 18 -41 21 -140 21 l-114 0 0 -110z"/>
<path d="M8410 2147 c-47 -23 -61 -70 -58 -194 3 -95 6 -116 24 -140 44 -59
147 -53 181 10 22 42 25 225 4 275 -23 55 -94 78 -151 49z"/>
<path d="M9599 2155 c-15 -8 -34 -32 -43 -55 -28 -71 -30 -70 99 -70 l115 0
-7 33 c-3 17 -12 45 -20 60 -23 46 -91 61 -144 32z"/>
<path d="M5013 759 c-52 -15 -68 -56 -68 -170 0 -107 12 -142 57 -165 57 -30
126 -8 149 48 18 42 18 193 1 233 -21 50 -78 72 -139 54z"/>
<path d="M1482 789 c-18 -4 -44 -17 -58 -30 -23 -22 -24 -28 -24 -155 l0 -132
31 -26 c23 -19 42 -26 74 -26 100 0 130 42 130 180 0 58 -5 108 -14 127 -22
53 -74 76 -139 62z"/>
<path d="M2136 529 c-33 -26 -37 -86 -7 -113 27 -25 106 -24 140 2 22 16 26
28 29 76 l3 56 -69 0 c-55 0 -75 -4 -96 -21z"/>
<path d="M3625 794 c-5 -1 -22 -5 -38 -8 -60 -14 -67 -33 -67 -175 0 -71 3
-137 6 -146 10 -25 58 -45 110 -45 39 0 51 5 80 34 l34 34 0 116 c0 112 -1
117 -27 146 -26 28 -75 50 -98 44z"/>
<path d="M4256 529 c-33 -26 -37 -86 -7 -113 27 -25 106 -24 140 2 22 16 26
28 29 76 l3 56 -69 0 c-55 0 -75 -4 -96 -21z"/>
<path d="M5700 787 c-47 -23 -61 -70 -58 -194 3 -95 6 -116 24 -140 43 -57
148 -53 179 7 19 36 21 246 3 285 -22 49 -94 69 -148 42z"/>
</g>
</svg>
